<?xml version="1.0" encoding="UTF-8"?>
<svg xmlns="http://www.w3.org/2000/svg" xmlns:xlink="http://www.w3.org/1999/xlink" width="140px" height="130px" viewBox="0 0 140 130" version="1.1">
<g id="surface1">
<path style="fill-rule:nonzero;fill:rgb(88.627452%,46.27451%,10.588235%);fill-opacity:1;stroke-width:1;stroke-linecap:round;stroke-linejoin:round;stroke:rgb(88.627452%,46.27451%,10.588235%);stroke-opacity:1;stroke-miterlimit:4;" d="M 482.09279 0.495195 L 284.323585 147.384269 L 320.89608 60.725092 Z M 482.09279 0.495195 " transform="matrix(0.275673,0,0,0.276091,0.00261885,0)"/>
<path style="fill-rule:nonzero;fill:rgb(89.411765%,46.27451%,10.588235%);fill-opacity:1;stroke-width:1;stroke-linecap:round;stroke-linejoin:round;stroke:rgb(89.411765%,46.27451%,10.588235%);stroke-opacity:1;stroke-miterlimit:4;" d="M 25.538818 0.495195 L 221.720995 148.770816 L 186.933906 60.725092 Z M 25.538818 0.495195 " transform="matrix(0.275673,0,0,0.276091,0.00261885,0)"/>
<path style="fill-rule:nonzero;fill:rgb(89.411765%,46.27451%,10.588235%);fill-opacity:1;stroke-width:1;stroke-linecap:round;stroke-linejoin:round;stroke:rgb(89.411765%,46.27451%,10.588235%);stroke-opacity:1;stroke-miterlimit:4;" d="M 410.931584 340.963185 L 358.26209 421.66587 L 470.955253 452.665095 L 503.3618 342.760036 Z M 410.931584 340.963185 " transform="matrix(0.275673,0,0,0.276091,0.00261885,0)"/>
<path style="fill-rule:nonzero;fill:rgb(89.411765%,46.27451%,10.588235%);fill-opacity:1;stroke-width:1;stroke-linecap:round;stroke-linejoin:round;stroke:rgb(89.411765%,46.27451%,10.588235%);stroke-opacity:1;stroke-miterlimit:4;" d="M 4.666565 342.760036 L 36.874733 452.665095 L 149.567897 421.66587 L 96.898402 340.963185 Z M 4.666565 342.760036 " transform="matrix(0.275673,0,0,0.276091,0.00261885,0)"/>
<path style="fill-rule:nonzero;fill:rgb(89.411765%,46.27451%,10.588235%);fill-opacity:1;stroke-width:1;stroke-linecap:round;stroke-linejoin:round;stroke:rgb(89.411765%,46.27451%,10.588235%);stroke-opacity:1;stroke-miterlimit:4;" d="M 143.205615 204.614697 L 111.80513 252.125148 L 223.70478 257.105398 L 219.72304 136.843683 Z M 143.205615 204.614697 " transform="matrix(0.275673,0,0,0.276091,0.00261885,0)"/>
<path style="fill-rule:nonzero;fill:rgb(89.411765%,46.27451%,10.588235%);fill-opacity:1;stroke-width:1;stroke-linecap:round;stroke-linejoin:round;stroke:rgb(89.411765%,46.27451%,10.588235%);stroke-opacity:1;stroke-miterlimit:4;" d="M 364.425993 204.614697 L 286.916675 135.457136 L 284.323585 257.105398 L 396.024856 252.125148 Z M 364.425993 204.614697 " transform="matrix(0.275673,0,0,0.276091,0.00261885,0)"/>
<path style="fill-rule:nonzero;fill:rgb(89.411765%,46.27451%,10.588235%);fill-opacity:1;stroke-width:1;stroke-linecap:round;stroke-linejoin:round;stroke:rgb(89.411765%,46.27451%,10.588235%);stroke-opacity:1;stroke-miterlimit:4;" d="M 149.567897 421.66587 L 216.747362 388.869793 L 158.707478 343.552349 Z M 149.567897 421.66587 " transform="matrix(0.275673,0,0,0.276091,0.00261885,0)"/>
<path style="fill-rule:nonzero;fill:rgb(89.411765%,46.27451%,10.588235%);fill-opacity:1;stroke-width:1;stroke-linecap:round;stroke-linejoin:round;stroke:rgb(89.411765%,46.27451%,10.588235%);stroke-opacity:1;stroke-miterlimit:4;" d="M 290.884246 388.869793 L 358.26209 421.66587 L 348.92413 343.552349 Z M 290.884246 388.869793 " transform="matrix(0.275673,0,0,0.276091,0.00261885,0)"/>
<path style="fill-rule:nonzero;fill:rgb(84.313726%,75.686276%,70.19608%);fill-opacity:1;stroke-width:1;stroke-linecap:round;stroke-linejoin:round;stroke:rgb(84.313726%,75.686276%,70.19608%);stroke-opacity:1;stroke-miterlimit:4;" d="M 358.26209 421.66587 L 290.884246 388.869793 L 296.254635 432.80069 L 295.64533 451.278548 Z M 358.26209 421.66587 " transform="matrix(0.275673,0,0,0.276091,0.00261885,0)"/>
<path style="fill-rule:nonzero;fill:rgb(84.313726%,75.686276%,70.19608%);fill-opacity:1;stroke-width:1;stroke-linecap:round;stroke-linejoin:round;stroke:rgb(84.313726%,75.686276%,70.19608%);stroke-opacity:1;stroke-miterlimit:4;" d="M 149.567897 421.66587 L 212.184657 451.278548 L 211.77373 432.80069 L 216.747362 388.869793 Z M 149.567897 421.66587 " transform="matrix(0.275673,0,0,0.276091,0.00261885,0)"/>
<path style="fill-rule:nonzero;fill:rgb(13.725491%,20.392157%,27.843139%);fill-opacity:1;stroke-width:1;stroke-linecap:round;stroke-linejoin:round;stroke:rgb(13.725491%,20.392157%,27.843139%);stroke-opacity:1;stroke-miterlimit:4;" d="M 213.176549 314.533904 L 157.12045 298.036827 L 196.668623 279.955124 Z M 213.176549 314.533904 " transform="matrix(0.275673,0,0,0.276091,0.00261885,0)"/>
<path style="fill-rule:nonzero;fill:rgb(13.725491%,20.392157%,27.843139%);fill-opacity:1;stroke-width:1;stroke-linecap:round;stroke-linejoin:round;stroke:rgb(13.725491%,20.392157%,27.843139%);stroke-opacity:1;stroke-miterlimit:4;" d="M 294.455059 314.533904 L 310.962985 279.955124 L 350.709536 298.036827 Z M 294.455059 314.533904 " transform="matrix(0.275673,0,0,0.276091,0.00261885,0)"/>
<path style="fill-rule:nonzero;fill:rgb(80.392158%,38.039216%,8.627451%);fill-opacity:1;stroke-width:1;stroke-linecap:round;stroke-linejoin:round;stroke:rgb(80.392158%,38.039216%,8.627451%);stroke-opacity:1;stroke-miterlimit:4;" d="M 149.567897 421.66587 L 159.104235 340.963185 L 96.898402 342.760036 Z M 149.567897 421.66587 " transform="matrix(0.275673,0,0,0.276091,0.00261885,0)"/>
<path style="fill-rule:nonzero;fill:rgb(80.392158%,38.039216%,8.627451%);fill-opacity:1;stroke-width:1;stroke-linecap:round;stroke-linejoin:round;stroke:rgb(80.392158%,38.039216%,8.627451%);stroke-opacity:1;stroke-miterlimit:4;" d="M 348.725751 340.963185 L 358.26209 421.66587 L 410.931584 342.760036 Z M 348.725751 340.963185 " transform="matrix(0.275673,0,0,0.276091,0.00261885,0)"/>
<path style="fill-rule:nonzero;fill:rgb(80.392158%,38.039216%,8.627451%);fill-opacity:1;stroke-width:1;stroke-linecap:round;stroke-linejoin:round;stroke:rgb(80.392158%,38.039216%,8.627451%);stroke-opacity:1;stroke-miterlimit:4;" d="M 396.024856 252.125148 L 284.323585 257.105398 L 294.653437 314.533904 L 311.161363 279.955124 L 350.907915 298.036827 Z M 396.024856 252.125148 " transform="matrix(0.275673,0,0,0.276091,0.00261885,0)"/>
<path style="fill-rule:nonzero;fill:rgb(80.392158%,38.039216%,8.627451%);fill-opacity:1;stroke-width:1;stroke-linecap:round;stroke-linejoin:round;stroke:rgb(80.392158%,38.039216%,8.627451%);stroke-opacity:1;stroke-miterlimit:4;" d="M 157.12045 298.036827 L 196.867002 279.955124 L 213.176549 314.533904 L 223.70478 257.105398 L 111.80513 252.125148 Z M 157.12045 298.036827 " transform="matrix(0.275673,0,0,0.276091,0.00261885,0)"/>
<path style="fill-rule:nonzero;fill:rgb(89.411765%,45.882353%,12.156863%);fill-opacity:1;stroke-width:1;stroke-linecap:round;stroke-linejoin:round;stroke:rgb(89.411765%,45.882353%,12.156863%);stroke-opacity:1;stroke-miterlimit:4;" d="M 111.80513 252.125148 L 158.707478 343.552349 L 157.12045 298.036827 Z M 111.80513 252.125148 " transform="matrix(0.275673,0,0,0.276091,0.00261885,0)"/>
<path style="fill-rule:nonzero;fill:rgb(89.411765%,45.882353%,12.156863%);fill-opacity:1;stroke-width:1;stroke-linecap:round;stroke-linejoin:round;stroke:rgb(89.411765%,45.882353%,12.156863%);stroke-opacity:1;stroke-miterlimit:4;" d="M 350.907915 298.036827 L 348.92413 343.552349 L 396.024856 252.125148 Z M 350.907915 298.036827 " transform="matrix(0.275673,0,0,0.276091,0.00261885,0)"/>
<path style="fill-rule:nonzero;fill:rgb(89.411765%,45.882353%,12.156863%);fill-opacity:1;stroke-width:1;stroke-linecap:round;stroke-linejoin:round;stroke:rgb(89.411765%,45.882353%,12.156863%);stroke-opacity:1;stroke-miterlimit:4;" d="M 223.70478 257.105398 L 213.176549 314.533904 L 226.283701 382.304918 L 229.273548 293.070725 Z M 223.70478 257.105398 " transform="matrix(0.275673,0,0,0.276091,0.00261885,0)"/>
<path style="fill-rule:nonzero;fill:rgb(89.411765%,45.882353%,12.156863%);fill-opacity:1;stroke-width:1;stroke-linecap:round;stroke-linejoin:round;stroke:rgb(89.411765%,45.882353%,12.156863%);stroke-opacity:1;stroke-miterlimit:4;" d="M 284.323585 257.105398 L 278.953195 292.872647 L 281.333737 382.304918 L 294.653437 314.533904 Z M 284.323585 257.105398 " transform="matrix(0.275673,0,0,0.276091,0.00261885,0)"/>
<path style="fill-rule:nonzero;fill:rgb(96.470588%,52.156866%,10.588235%);fill-opacity:1;stroke-width:1;stroke-linecap:round;stroke-linejoin:round;stroke:rgb(96.470588%,52.156866%,10.588235%);stroke-opacity:1;stroke-miterlimit:4;" d="M 294.653437 314.533904 L 281.333737 382.304918 L 290.884246 388.869793 L 348.92413 343.552349 L 350.907915 298.036827 Z M 294.653437 314.533904 " transform="matrix(0.275673,0,0,0.276091,0.00261885,0)"/>
<path style="fill-rule:nonzero;fill:rgb(96.470588%,52.156866%,10.588235%);fill-opacity:1;stroke-width:1;stroke-linecap:round;stroke-linejoin:round;stroke:rgb(96.470588%,52.156866%,10.588235%);stroke-opacity:1;stroke-miterlimit:4;" d="M 157.12045 298.036827 L 158.707478 343.552349 L 216.747362 388.869793 L 226.283701 382.304918 L 213.176549 314.533904 Z M 157.12045 298.036827 " transform="matrix(0.275673,0,0,0.276091,0.00261885,0)"/>
<path style="fill-rule:nonzero;fill:rgb(75.294119%,67.843139%,61.960787%);fill-opacity:1;stroke-width:1;stroke-linecap:round;stroke-linejoin:round;stroke:rgb(75.294119%,67.843139%,61.960787%);stroke-opacity:1;stroke-miterlimit:4;" d="M 295.64533 451.278548 L 296.254635 432.80069 L 291.281003 428.414674 L 216.350605 428.414674 L 211.77373 432.80069 L 212.184657 451.278548 L 149.567897 421.66587 L 171.432043 439.549494 L 215.75547 470.36479 L 291.876138 470.36479 L 336.397944 439.549494 L 358.26209 421.66587 Z M 295.64533 451.278548 " transform="matrix(0.275673,0,0,0.276091,0.00261885,0)"/>
<path style="fill-rule:nonzero;fill:rgb(8.627451%,8.627451%,8.627451%);fill-opacity:1;stroke-width:1;stroke-linecap:round;stroke-linejoin:round;stroke:rgb(8.627451%,8.627451%,8.627451%);stroke-opacity:1;stroke-miterlimit:4;" d="M 290.884246 388.869793 L 281.333737 382.304918 L 226.283701 382.304918 L 216.747362 388.869793 L 211.77373 432.80069 L 216.350605 428.414674 L 291.281003 428.414674 L 296.254635 432.80069 Z M 290.884246 388.869793 " transform="matrix(0.275673,0,0,0.276091,0.00261885,0)"/>
<path style="fill-rule:nonzero;fill:rgb(46.27451%,23.921569%,8.627451%);fill-opacity:1;stroke-width:1;stroke-linecap:round;stroke-linejoin:round;stroke:rgb(46.27451%,23.921569%,8.627451%);stroke-opacity:1;stroke-miterlimit:4;" d="M 490.438857 156.920315 L 507.32937 75.835623 L 482.09279 0.495195 L 290.884246 142.404019 L 364.425993 204.614697 L 468.376333 235.033836 L 491.43075 208.194251 L 481.483484 201.049291 L 497.396275 186.532994 L 485.068467 176.996948 L 500.967088 164.871737 Z M 490.438857 156.920315 " transform="matrix(0.275673,0,0,0.276091,0.00261885,0)"/>
<path style="fill-rule:nonzero;fill:rgb(46.27451%,23.921569%,8.627451%);fill-opacity:1;stroke-width:1;stroke-linecap:round;stroke-linejoin:round;stroke:rgb(46.27451%,23.921569%,8.627451%);stroke-opacity:1;stroke-miterlimit:4;" d="M 0.500616 75.835623 L 17.391129 156.920315 L 6.66452 164.871737 L 22.563141 176.996948 L 10.433712 186.532994 L 26.346502 201.049291 L 16.399237 208.194251 L 39.255275 235.033836 L 143.205615 204.614697 L 216.747362 142.404019 L 25.538818 0.495195 Z M 0.500616 75.835623 " transform="matrix(0.275673,0,0,0.276091,0.00261885,0)"/>
<path style="fill-rule:nonzero;fill:rgb(96.470588%,52.156866%,10.588235%);fill-opacity:1;stroke-width:1;stroke-linecap:round;stroke-linejoin:round;stroke:rgb(96.470588%,52.156866%,10.588235%);stroke-opacity:1;stroke-miterlimit:4;" d="M 468.376333 235.033836 L 364.425993 204.614697 L 396.024856 252.125148 L 348.92413 343.552349 L 410.931584 342.760036 L 503.3618 342.760036 Z M 468.376333 235.033836 " transform="matrix(0.275673,0,0,0.276091,0.00261885,0)"/>
<path style="fill-rule:nonzero;fill:rgb(96.470588%,52.156866%,10.588235%);fill-opacity:1;stroke-width:1;stroke-linecap:round;stroke-linejoin:round;stroke:rgb(96.470588%,52.156866%,10.588235%);stroke-opacity:1;stroke-miterlimit:4;" d="M 143.205615 204.614697 L 39.255275 235.033836 L 4.666565 342.760036 L 96.898402 342.760036 L 158.707478 343.552349 L 111.80513 252.125148 Z M 143.205615 204.614697 " transform="matrix(0.275673,0,0,0.276091,0.00261885,0)"/>
<path style="fill-rule:nonzero;fill:rgb(96.470588%,52.156866%,10.588235%);fill-opacity:1;stroke-width:1;stroke-linecap:round;stroke-linejoin:round;stroke:rgb(96.470588%,52.156866%,10.588235%);stroke-opacity:1;stroke-miterlimit:4;" d="M 284.323585 257.105398 L 290.884246 142.404019 L 321.094459 60.725092 L 186.933906 60.725092 L 216.747362 142.404019 L 223.70478 257.105398 L 226.085322 293.268803 L 226.283701 382.304918 L 281.333737 382.304918 L 281.744664 293.268803 Z M 284.323585 257.105398 " transform="matrix(0.275673,0,0,0.276091,0.00261885,0)"/>
</g>
</svg>
